<svg width="38" height="47" viewBox="0 0 38 47" fill="none" xmlns="http://www.w3.org/2000/svg">
<path d="M37.5371 46.7129H0V0H37.5371V46.7129Z" stroke="white"/>
<g clip-path="url(#clip0_717_12847)">
<path d="M8.4459 7.08997C9.69034 7.08997 10.8838 7.58432 11.7638 8.46427C12.6437 9.34422 13.1381 10.5377 13.1381 11.7821C13.1381 13.0266 12.6437 14.22 11.7638 15.1C10.8838 15.9799 9.69034 16.4743 8.4459 16.4743C7.20146 16.4743 6.00799 15.9799 5.12804 15.1C4.24809 14.22 3.75373 13.0266 3.75373 11.7821C3.75373 10.5377 4.24809 9.34422 5.12804 8.46427C6.00799 7.58432 7.20146 7.08997 8.4459 7.08997ZM30.0299 7.08997C31.2743 7.08997 32.4678 7.58432 33.3477 8.46427C34.2277 9.34422 34.722 10.5377 34.722 11.7821C34.722 13.0266 34.2277 14.22 33.3477 15.1C32.4678 15.9799 31.2743 16.4743 30.0299 16.4743C28.7854 16.4743 27.592 15.9799 26.712 15.1C25.8321 14.22 25.3377 13.0266 25.3377 11.7821C25.3377 10.5377 25.8321 9.34422 26.712 8.46427C27.592 7.58432 28.7854 7.08997 30.0299 7.08997ZM0 24.6093C0 21.1547 2.80357 18.3512 6.25818 18.3512H8.76262C9.69519 18.3512 10.5808 18.5564 11.3785 18.9201C11.3023 19.3424 11.2671 19.7823 11.2671 20.228C11.2671 22.4685 12.2524 24.4803 13.8067 25.8586C13.795 25.8586 13.7832 25.8586 13.7656 25.8586H1.24929C0.56306 25.8586 0 25.2956 0 24.6093ZM23.7717 25.8586C23.76 25.8586 23.7482 25.8586 23.7306 25.8586C25.2908 24.4803 26.2703 22.4685 26.2703 20.228C26.2703 19.7823 26.2292 19.3483 26.1588 18.9201C26.9565 18.5506 27.8421 18.3512 28.7747 18.3512H31.2792C34.7338 18.3512 37.5373 21.1547 37.5373 24.6093C37.5373 25.3014 36.9743 25.8586 36.2881 25.8586H23.7717ZM13.1381 20.228C13.1381 18.7347 13.7313 17.3025 14.7872 16.2466C15.8432 15.1907 17.2753 14.5974 18.7687 14.5974C20.262 14.5974 21.6942 15.1907 22.7501 16.2466C23.806 17.3025 24.3993 18.7347 24.3993 20.228C24.3993 21.7214 23.806 23.1535 22.7501 24.2095C21.6942 25.2654 20.262 25.8586 18.7687 25.8586C17.2753 25.8586 15.8432 25.2654 14.7872 24.2095C13.7313 23.1535 13.1381 21.7214 13.1381 20.228ZM7.50747 35.5538C7.50747 31.237 11.009 27.7355 15.3258 27.7355H22.2115C26.5283 27.7355 30.0299 31.237 30.0299 35.5538C30.0299 36.416 29.3319 37.1198 28.4639 37.1198H9.07348C8.21129 37.1198 7.50747 36.4219 7.50747 35.5538Z" fill="white"/>
</g>
<defs>
<clipPath id="clip0_717_12847">
<path d="M0 7.09039H37.5373V37.1203H0V7.09039Z" fill="white"/>
</clipPath>
</defs>
</svg>
