<svg width="34" height="47" viewBox="0 0 34 47" fill="none" xmlns="http://www.w3.org/2000/svg">
<path d="M33.7832 46.7129H0V0H33.7832V46.7129Z" stroke="white"/>
<g clip-path="url(#clip0_717_12838)">
<path d="M17.8303 21.1678V8.06493C17.8303 7.53706 18.2409 7.09131 18.7688 7.09131C26.024 7.09131 31.9068 12.9741 31.9068 20.2294C31.9068 20.7572 31.4611 21.1678 30.9332 21.1678H17.8303ZM1.87695 23.0447C1.87695 15.9302 7.16151 10.0415 14.0179 9.10308C14.5575 9.02683 15.015 9.46085 15.015 10.0063V23.9831L24.1941 33.1622C24.587 33.5551 24.5577 34.2003 24.1061 34.517C21.8069 36.1593 18.9916 37.1212 15.9535 37.1212C8.18205 37.1212 1.87695 30.8219 1.87695 23.0447ZM32.7514 23.9831C33.2969 23.9831 33.725 24.4406 33.6547 24.9802C33.203 28.2589 31.6253 31.1739 29.3203 33.3264C28.9684 33.6548 28.417 33.6314 28.0768 33.2853L18.7688 23.9831H32.7514Z" fill="white"/>
</g>
<defs>
<clipPath id="clip0_717_12838">
<path d="M0 7.09106H33.7836V37.1209H0V7.09106Z" fill="white"/>
</clipPath>
</defs>
</svg>
