<svg width="31" height="47" viewBox="0 0 31 47" fill="none" xmlns="http://www.w3.org/2000/svg">
<path d="M30.0303 46.7129H0V0H30.0303V46.7129Z" stroke="white"/>
<g clip-path="url(#clip0_717_12829)">
<path d="M15.014 7.09082C15.2838 7.09082 15.5536 7.14947 15.8 7.26091L26.8442 11.9472C28.1345 12.4927 29.0964 13.7654 29.0905 15.3021C29.0612 21.1204 26.6682 31.7658 16.5624 36.6046C15.583 37.0738 14.4451 37.0738 13.4656 36.6046C3.35986 31.7658 0.966853 21.1204 0.937527 15.3021C0.931661 13.7654 1.89356 12.4927 3.1839 11.9472L14.234 7.26091C14.4744 7.14947 14.7442 7.09082 15.014 7.09082ZM15.014 11.0088V33.1793C23.108 29.2613 25.284 20.5867 25.3368 15.3842L15.014 11.0088Z" fill="white"/>
</g>
<defs>
<clipPath id="clip0_717_12829">
<path d="M0 7.09082H30.0299V37.1207H0V7.09082Z" fill="white"/>
</clipPath>
</defs>
</svg>
