<?xml version="1.0" encoding="UTF-8"?>
<svg version="1.1" xmlns="http://www.w3.org/2000/svg" width="60" height="60">
<path d="M0 0 C19.8 0 39.6 0 60 0 C60 19.8 60 39.6 60 60 C40.2 60 20.4 60 0 60 C0 40.2 0 20.4 0 0 Z " fill="#9665FD" transform="translate(0,0)"/>
<path d="M0 0 C4.84108173 1.65951889 8.12757244 4.41898233 10.40625 9.015625 C11.93750132 14.13322809 10.55592588 19.2123578 8.5 24 C5.70066746 29.18085426 1.2841548 33.04539557 -3 37 C-10.00985739 32.99436721 -15.20303006 26.61397371 -18 19 C-18.68816633 14.30177799 -18.48209953 10.98274136 -16.375 6.6875 C-11.65343388 1.34467518 -7.25506492 -1.36120173 0 0 Z " fill="#F6F2FE" transform="translate(34,12)"/>
<path d="M0 0 C0.33 0 0.66 0 1 0 C1 8.25 1 16.5 1 25 C-7.25 25 -15.5 25 -24 25 C-21.41031136 23.27354091 -19.07347822 22.12890493 -16.25 20.875 C-7.80288933 16.65144467 -3.77681603 10.65190729 -0.62890625 1.90625 C-0.42136719 1.2771875 -0.21382812 0.648125 0 0 Z " fill="#FBFAFE" transform="translate(59,35)"/>
<path d="M0 0 C0.33 0 0.66 0 1 0 C1.14695313 0.6290625 1.29390625 1.258125 1.4453125 1.90625 C3.58708905 10.07946625 6.81220036 16.16101286 14 20.875 C17.21224765 22.7096876 20.4222231 24.01611135 24 25 C24 25.33 24 25.66 24 26 C16.08 26 8.16 26 0 26 C0 17.42 0 8.84 0 0 Z " fill="#FCFBFE" transform="translate(0,34)"/>
<path d="M0 0 C8.58 0 17.16 0 26 0 C26 7.92 26 15.84 26 24 C24.45757138 21.68635707 23.2968427 19.61395515 22.125 17.125 C18.75642711 10.40014827 14.74696732 6.32494433 8 3 C5.32902465 2.11875983 2.76879647 1.54387074 0 1 C0 0.67 0 0.34 0 0 Z " fill="#FCFBFE" transform="translate(34,0)"/>
<path d="M0 0 C7.59 0 15.18 0 23 0 C20 2 20 2 17.73046875 3.2265625 C8.99844167 8.02850673 4.4702961 13.74587707 1 23 C0.67 23 0.34 23 0 23 C0 15.41 0 7.82 0 0 Z " fill="#FDFCFE" transform="translate(0,0)"/>
<path d="M0 0 C2.5 1.625 2.5 1.625 5 4 C5.3125 7.25 5.3125 7.25 5 10 C2.03 10 -0.94 10 -4 10 C-4.25 7.25 -4.25 7.25 -4 4 C-2 1.625 -2 1.625 0 0 Z " fill="#FDFCFE" transform="translate(30,21)"/>
</svg>
