<svg width="60" height="60" viewBox="0 0 60 60" fill="none" xmlns="http://www.w3.org/2000/svg">
<path d="M29.8662 0C46.3608 1.28851e-07 59.7324 13.3716 59.7324 29.8662C59.7324 46.3609 46.3609 59.7324 29.8662 59.7324C13.3716 59.7324 0 46.3609 0 29.8662C6.58471e-05 13.3716 13.3716 0 29.8662 0ZM30.3584 12.1807C22.4986 12.1808 16.1046 18.5711 16.1045 26.4258C16.1045 31.2246 18.3657 36.3533 22.8242 41.6689C23.9117 42.965 24.9945 44.1065 25.96 45.0566C26.8344 45.9174 27.6119 46.6199 28.208 47.1367L28.2129 47.1416H28.2021L30.3584 48.835L32.5146 47.1416H32.5039L32.5098 47.1367C33.1059 46.6198 33.8833 45.9174 34.7578 45.0566C35.7229 44.1065 36.8054 42.965 37.8926 41.6689C42.3515 36.3532 44.6133 31.2246 44.6133 26.4258C44.6132 18.571 38.2183 12.1807 30.3584 12.1807ZM35.9727 24.6572V32.2754H24.7451V24.6572L30.5449 19.6846L35.9727 24.6572ZM25.7939 25.1152V31.1865L34.9531 31.2227V25.1143L30.5449 21.042L25.7939 25.1152Z" fill="#FF3700"/>
</svg>
