<svg width="148" height="148" viewBox="0 0 148 148" fill="none" xmlns="http://www.w3.org/2000/svg">
<path d="M25 21.5H28.5V30.25H25V21.5Z" fill="#607D8B"/>
<path d="M32 21.5H35.5V30.25H32V21.5Z" fill="#607D8B"/>
<path d="M37.25 126.5C34.9302 126.497 32.7061 125.575 31.0657 123.934C29.4253 122.294 28.5026 120.07 28.5 117.75V42.5H32V117.75C32 119.142 32.5531 120.478 33.5377 121.462C34.5223 122.447 35.8576 123 37.25 123C38.6424 123 39.9777 122.447 40.9623 121.462C41.9469 120.478 42.5 119.142 42.5 117.75V33.75C42.5036 30.5022 43.7954 27.3885 46.092 25.092C48.3885 22.7954 51.5022 21.5036 54.75 21.5H61.75C64.9978 21.5036 68.1115 22.7954 70.408 25.092C72.7046 27.3885 73.9964 30.5022 74 33.75V40.75H70.5V33.75C70.4974 31.4302 69.5747 29.2061 67.9343 27.5657C66.2939 25.9253 64.0698 25.0026 61.75 25H54.75C52.4302 25.0026 50.2061 25.9253 48.5657 27.5657C46.9253 29.2061 46.0026 31.4302 46 33.75V117.75C45.9974 120.07 45.0747 122.294 43.4343 123.934C41.7939 125.575 39.5698 126.497 37.25 126.5Z" fill="#3D5966"/>
<path d="M112.5 110.75C110.352 110.75 108.232 110.265 106.297 109.332C104.363 108.399 102.663 107.041 101.326 105.36C99.989 103.679 99.0483 101.718 98.5741 99.623C98.1 97.528 98.1046 95.353 98.5876 93.26L100.25 86.0509V75.9356L98.3391 67.017C97.8866 64.9054 97.912 62.7194 98.4135 60.619C98.915 58.5185 99.8798 56.5568 101.237 54.8774C102.595 53.198 104.311 51.8435 106.26 50.9129C108.208 49.9824 110.341 49.4995 112.5 49.4995C114.66 49.4995 116.792 49.9824 118.741 50.9129C120.689 51.8435 122.405 53.198 123.763 54.8774C125.12 56.5568 126.085 58.5185 126.587 60.619C127.088 62.7194 127.114 64.9054 126.661 67.017L124.75 75.9356V86.0509L126.414 93.26C126.897 95.3531 126.901 97.5281 126.427 99.6232C125.953 101.718 125.012 103.679 123.675 105.36C122.338 107.042 120.638 108.399 118.703 109.332C116.769 110.266 114.648 110.75 112.5 110.75ZM112.5 53.0001C110.863 53.0001 109.246 53.3663 107.768 54.0719C106.29 54.7775 104.989 55.8047 103.959 57.0781C102.93 58.3516 102.198 59.8392 101.818 61.432C101.437 63.0248 101.418 64.6825 101.761 66.2837L103.711 75.3837C103.737 75.5042 103.75 75.627 103.75 75.7501V86.2501C103.751 86.3826 103.736 86.5147 103.706 86.6439L101.998 94.0473C101.633 95.6273 101.63 97.2691 101.988 98.8506C102.346 100.432 103.056 101.912 104.066 103.181C105.075 104.45 106.358 105.475 107.819 106.179C109.279 106.884 110.88 107.25 112.501 107.25C114.123 107.25 115.723 106.884 117.184 106.179C118.644 105.475 119.927 104.45 120.937 103.181C121.946 101.912 122.656 100.432 123.014 98.8506C123.373 97.2691 123.369 95.6273 123.005 94.0473L121.295 86.6439C121.265 86.5147 121.251 86.3826 121.251 86.2501V75.7501C121.251 75.6269 121.264 75.504 121.29 75.3835L123.24 66.2835C123.583 64.6822 123.564 63.0244 123.183 61.4316C122.803 59.8387 122.071 58.3511 121.042 57.0776C120.012 55.8042 118.711 54.7771 117.233 54.0716C115.755 53.3661 114.138 53 112.5 53.0001Z" fill="#3D5966"/>
<path d="M112.5 103.75C111.397 103.75 110.309 103.502 109.314 103.025C108.32 102.548 107.445 101.853 106.755 100.993C106.065 100.133 105.577 99.1285 105.327 98.0543C105.077 96.9801 105.071 95.8634 105.311 94.7867L107.25 86.0586V75.9239L105.157 65.458C104.94 64.3716 104.966 63.2504 105.235 62.1754C105.503 61.1004 106.007 60.0984 106.709 59.2415C107.411 58.3847 108.295 57.6943 109.297 57.2203C110.298 56.7464 111.392 56.5005 112.5 56.5005C113.608 56.5005 114.703 56.7464 115.704 57.2203C116.706 57.6943 117.589 58.3847 118.292 59.2415C118.994 60.0984 119.498 61.1004 119.766 62.1754C120.034 63.2504 120.061 64.3716 119.844 65.458L117.75 75.923V86.0577L119.69 94.7859C119.93 95.8626 119.924 96.9793 119.674 98.0537C119.424 99.128 118.936 100.132 118.246 100.993C117.556 101.853 116.681 102.548 115.687 103.025C114.692 103.502 113.603 103.75 112.5 103.75ZM112.5 59.9998C111.91 59.9998 111.327 60.1308 110.794 60.3833C110.261 60.6358 109.79 61.0035 109.416 61.4598C109.042 61.9162 108.773 62.45 108.63 63.0225C108.488 63.5951 108.473 64.1923 108.589 64.771L110.717 75.4066C110.739 75.5196 110.75 75.6346 110.75 75.7498V86.2498C110.75 86.3774 110.737 86.5047 110.709 86.6293L108.727 95.5467C108.602 96.1117 108.605 96.6976 108.736 97.2613C108.867 97.8249 109.124 98.3519 109.486 98.8033C109.848 99.2548 110.307 99.6191 110.829 99.8694C111.351 100.12 111.922 100.25 112.501 100.25C113.079 100.25 113.651 100.12 114.173 99.8694C114.694 99.6191 115.153 99.2548 115.515 98.8033C115.878 98.3519 116.134 97.8249 116.265 97.2613C116.396 96.6976 116.399 96.1117 116.274 95.5467L114.292 86.63C114.264 86.5052 114.25 86.3777 114.25 86.2498V75.7498C114.25 75.6346 114.262 75.5196 114.284 75.4066L116.412 64.7707C116.527 64.1921 116.513 63.5949 116.37 63.0223C116.227 62.4498 115.959 61.9161 115.585 61.4597C115.211 61.0033 114.74 60.6356 114.207 60.3832C113.673 60.1307 113.091 59.9998 112.5 59.9998Z" fill="#3D5966"/>
<path d="M116 33.75H119.5V61.75H116V33.75Z" fill="#3D5966"/>
<path d="M35.5 44.25H25L23.25 28.5H37.25L35.5 44.25Z" fill="#7496A6"/>
<path d="M112.5 28.5H119.5V37.25H112.5V28.5Z" fill="#607D8B"/>
<path d="M98.5 126.5H82.75C79.5022 126.496 76.3885 125.205 74.092 122.908C71.7954 120.611 70.5036 117.498 70.5 114.25V107.25H74V114.25C74.0026 116.57 74.9253 118.794 76.5657 120.434C78.2061 122.075 80.4302 122.997 82.75 123H98.5C100.82 122.997 103.044 122.075 104.684 120.434C106.325 118.794 107.247 116.57 107.25 114.25V100.25H110.75V114.25C110.746 117.498 109.455 120.611 107.158 122.908C104.861 125.205 101.748 126.496 98.5 126.5Z" fill="#3D5966"/>
<path d="M91.5 33.75H53C52.0335 33.75 51.25 34.5335 51.25 35.5V112.5C51.25 113.466 52.0335 114.25 53 114.25H91.5C92.4665 114.25 93.25 113.466 93.25 112.5V35.5C93.25 34.5335 92.4665 33.75 91.5 33.75Z" fill="#7496A6"/>
<path d="M58.25 82.75H86.25V103.75H58.25V82.75Z" fill="#73C0FF"/>
<path d="M63.5 88H70.5V91.5H63.5V88Z" fill="#42A5F5"/>
<path d="M74 88H81V91.5H74V88Z" fill="#42A5F5"/>
<path d="M63.5 95H81V98.5H63.5V95Z" fill="#42A5F5"/>
<path d="M100.25 75.75H124.75V86.25H100.25V75.75Z" fill="#607D8B"/>
<path d="M102 25H110.75V28.5H102V25Z" fill="#607D8B"/>
<path d="M109 23.25H119.5V30.25H109V23.25Z" fill="#7496A6"/>
</svg>
