<svg width="148" height="148" viewBox="0 0 148 148" fill="none" xmlns="http://www.w3.org/2000/svg">
<path d="M130.528 37.9751L125.163 36.6579C124.648 34.4815 123.789 32.4388 122.643 30.587L125.507 25.8524C125.87 25.2415 125.774 24.4588 125.278 23.9624L122.567 21.2515C122.071 20.7551 121.288 20.6597 120.677 21.0224L115.943 23.8861C114.091 22.7406 112.048 21.8815 109.872 21.3661L108.554 15.9824C108.382 15.2951 107.772 14.8179 107.046 14.8179H103.209C102.503 14.8179 101.873 15.2951 101.72 15.9824L100.403 21.347C98.2261 21.8624 96.1834 22.7215 94.3316 23.867L89.597 21.0033C88.9861 20.6406 88.2034 20.7361 87.707 21.2324L84.9961 23.9433C84.4998 24.4397 84.4043 25.2224 84.767 25.8333L87.6307 30.5679C86.4852 32.4197 85.6261 34.4624 85.1107 36.6388L79.727 37.9751C79.0398 38.147 78.5625 38.7579 78.5625 39.4642V43.3015C78.5625 44.0079 79.0398 44.6379 79.727 44.7906L85.0916 46.1079C85.607 48.2842 86.4661 50.327 87.6116 52.1597L84.748 56.8942C84.3852 57.5051 84.4807 58.2879 84.977 58.7842L87.688 61.4951C88.1843 61.9915 88.967 62.087 89.578 61.7242L94.3125 58.8606C96.1643 60.0061 98.207 60.8651 100.383 61.3806L101.701 66.7451C101.872 67.4324 102.483 67.9097 103.19 67.9097H107.027C107.733 67.9097 108.363 67.4324 108.516 66.7451L109.833 61.3806C112.01 60.8651 114.053 60.0061 115.904 58.8606L120.639 61.7242C121.25 62.087 122.033 61.9915 122.529 61.4951L125.24 58.7842C125.736 58.2879 125.832 57.5051 125.469 56.8942L122.605 52.1597C123.751 50.3079 124.61 48.2651 125.125 46.1079L130.49 44.7906C131.177 44.6188 131.654 44.0079 131.654 43.3015V39.4642C131.712 38.7579 131.234 38.147 130.528 37.9751ZM105.137 52.5224C98.9898 52.5224 94.007 47.5397 94.007 41.3924C94.007 35.2451 98.9898 30.2624 105.137 30.2624C111.284 30.2624 116.267 35.2451 116.267 41.3924C116.267 47.5397 111.284 52.5224 105.137 52.5224Z" fill="#5D5B68"/>
<path d="M109.165 48.8378C109.165 46.7187 107.447 45.0005 105.328 45.0005H18.7123C16.5932 45.0005 14.875 46.7187 14.875 48.8378V101.09H109.165V48.8378Z" fill="#009AFF"/>
<g opacity="0.35">
<path d="M105.328 45.0005H52.8662C52.8662 49.2196 56.2835 52.6369 60.5026 52.6369H101.529V62.8696C101.529 67.0887 104.946 70.5059 109.165 70.5059V48.8378C109.165 46.7187 107.447 45.0005 105.328 45.0005Z" fill="white"/>
</g>
<path d="M14.875 101.09V113.709C14.875 115.828 16.5932 117.546 18.7123 117.546H105.328C107.447 117.546 109.165 115.828 109.165 113.709V101.09H14.875Z" fill="#E6E9EE"/>
<g opacity="0.1">
<path d="M87.4014 106.206C53.515 106.206 26.0623 78.7345 26.0623 44.8672H18.7123C16.5932 44.8672 14.875 46.5854 14.875 48.7045V113.556C14.875 115.675 16.5932 117.394 18.7123 117.394H105.309C107.428 117.394 109.146 115.675 109.146 113.556V106.206H87.4014Z" fill="black"/>
</g>
<path d="M47.9785 117.546H76.0612V125.507H47.9785V117.546Z" fill="#AAB2BD"/>
<path d="M83.9273 125.507H40.1136C37.9945 125.507 36.2764 127.225 36.2764 129.344V133.181H87.7836V129.344C87.7645 127.225 86.0464 125.507 83.9273 125.507Z" fill="#E6E9EE"/>
<path d="M129.287 67.2798H73.1976C71.0785 67.2798 69.3604 68.998 69.3604 71.1171V79.9371H133.124V71.1171C133.124 68.998 131.406 67.2798 129.287 67.2798Z" fill="#FF4823"/>
<g opacity="0.1">
<path d="M82.2086 75.6416C77.5886 75.6416 73.8468 71.8998 73.8468 67.2798H73.3695C71.2504 67.2798 69.5322 68.998 69.5322 71.1171V79.9371H133.296V75.6225H82.2086V75.6416Z" fill="black"/>
</g>
<path d="M69.3604 79.9561V129.344C69.3604 131.463 71.0785 133.182 73.1976 133.182H129.287C131.406 133.182 133.124 131.463 133.124 129.344V79.9561H69.3604Z" fill="#FEC200"/>
<path d="M123.541 87.6304H78.9442C77.8942 87.6304 77.0352 88.4895 77.0352 89.5395V107.256C77.0352 108.306 77.8942 109.165 78.9442 109.165H123.541C124.591 109.165 125.45 108.306 125.45 107.256V89.5395C125.45 88.4704 124.591 87.6304 123.541 87.6304Z" fill="#E6E9EE"/>
<g opacity="0.1">
<path d="M122.605 123.159C98.7413 123.159 79.3831 103.801 79.3831 79.937H69.3604V129.325C69.3604 131.444 71.0785 133.162 73.1976 133.162H129.287C131.406 133.162 133.124 131.444 133.124 129.325V123.14H122.605V123.159Z" fill="black"/>
</g>
<path d="M69.3606 102.522H14.8752C14.0925 102.522 13.4434 101.872 13.4434 101.09V48.8379C13.4434 45.9361 15.8106 43.5688 18.7125 43.5688H105.328C108.23 43.5688 110.597 45.9361 110.597 48.8379V67.2798C110.597 68.0625 109.948 68.7116 109.165 68.7116C108.382 68.7116 107.733 68.0625 107.733 67.2798V48.8379C107.733 47.5016 106.645 46.4325 105.328 46.4325H18.7125C17.3952 46.4325 16.307 47.5207 16.307 48.8379V99.6389H69.3606C70.1434 99.6389 70.7924 100.288 70.7924 101.071C70.7924 101.853 70.1625 102.522 69.3606 102.522Z" fill="#211E27"/>
<path d="M69.3606 118.978H18.7125C15.8106 118.978 13.4434 116.611 13.4434 113.709V101.09C13.4434 100.307 14.0925 99.6582 14.8752 99.6582C15.6579 99.6582 16.307 100.307 16.307 101.09V113.709C16.307 115.026 17.3952 116.115 18.7125 116.115H69.3606C70.1434 116.115 70.7925 116.764 70.7925 117.546C70.7925 118.329 70.1625 118.978 69.3606 118.978Z" fill="#211E27"/>
<path d="M62.0102 111.246C63.0751 111.246 63.9384 110.383 63.9384 109.318C63.9384 108.253 63.0751 107.39 62.0102 107.39C60.9453 107.39 60.082 108.253 60.082 109.318C60.082 110.383 60.9453 111.246 62.0102 111.246Z" fill="#211E27"/>
<path d="M47.9787 126.939C47.196 126.939 46.5469 126.29 46.5469 125.507V117.546C46.5469 116.763 47.196 116.114 47.9787 116.114C48.7614 116.114 49.4105 116.763 49.4105 117.546V125.507C49.4105 126.29 48.7614 126.939 47.9787 126.939Z" fill="#211E27"/>
<path d="M133.124 81.3881H69.3605C68.5778 81.3881 67.9287 80.739 67.9287 79.9563V71.1363C67.9287 68.2345 70.296 65.8672 73.1978 65.8672H129.287C132.189 65.8672 134.556 68.2345 134.556 71.1363V79.9563C134.556 80.739 133.907 81.3881 133.124 81.3881ZM70.7923 78.5245H131.692V71.1363C131.692 69.7999 130.623 68.7308 129.287 68.7308H73.1978C71.8805 68.7308 70.7923 69.819 70.7923 71.1363V78.5245Z" fill="#211E27"/>
<path d="M30.9686 76.806C30.6059 76.806 30.2432 76.6724 29.9568 76.386L23.4659 69.8951C23.1986 69.6278 23.0459 69.2651 23.0459 68.8833C23.0459 68.5015 23.1986 68.1387 23.4659 67.8715L29.9568 61.3806C30.5104 60.8269 31.4268 60.8269 31.9804 61.3806C32.5341 61.9342 32.5341 62.8506 31.9804 63.4042L26.5014 68.8833L31.9804 74.3624C32.5341 74.916 32.5341 75.8324 31.9804 76.386C31.7132 76.6724 31.3314 76.806 30.9686 76.806Z" fill="#211E27"/>
<path d="M50.6136 76.806C50.2508 76.806 49.8881 76.6724 49.6018 76.386C49.0481 75.8324 49.0481 74.916 49.6018 74.3624L55.0808 68.8833L49.6018 63.4042C49.0481 62.8506 49.0481 61.9342 49.6018 61.3806C50.1554 60.8269 51.0718 60.8269 51.6254 61.3806L58.1163 67.8715C58.3836 68.1387 58.5363 68.5015 58.5363 68.8833C58.5363 69.2651 58.3836 69.6278 58.1163 69.8951L51.6254 76.386C51.339 76.6724 50.9763 76.806 50.6136 76.806Z" fill="#211E27"/>
<path d="M35.0349 82.686C34.8249 82.686 34.634 82.6479 34.424 82.5524C33.6985 82.2279 33.3931 81.3688 33.7367 80.6433L45.2676 55.9206C45.5922 55.1951 46.4513 54.8897 47.1767 55.2333C47.9022 55.5769 48.2076 56.4169 47.864 57.1424L36.3331 81.8651C36.0849 82.3806 35.5695 82.686 35.0349 82.686Z" fill="#211E27"/>
<path d="M129.287 134.614H73.1978C70.296 134.614 67.9287 132.246 67.9287 129.344V79.9562C67.9287 79.1735 68.5778 78.5244 69.3605 78.5244H133.124C133.907 78.5244 134.556 79.1735 134.556 79.9562V129.364C134.556 132.246 132.189 134.614 129.287 134.614ZM70.7923 81.3881V129.364C70.7923 130.681 71.8614 131.769 73.1978 131.769H129.287C130.604 131.769 131.692 130.681 131.692 129.364V81.3881H70.7923Z" fill="#211E27"/>
<path d="M95.439 118.768H77.0353C76.2526 118.768 75.6035 118.119 75.6035 117.336C75.6035 116.553 76.2526 115.904 77.0353 115.904H95.439C96.2217 115.904 96.8708 116.553 96.8708 117.336C96.8708 118.119 96.2217 118.768 95.439 118.768Z" fill="#211E27"/>
<path d="M85.8362 126.939H77.0353C76.2526 126.939 75.6035 126.29 75.6035 125.507C75.6035 124.724 76.2526 124.075 77.0353 124.075H85.8362C86.619 124.075 87.2681 124.724 87.2681 125.507C87.2681 126.29 86.619 126.939 85.8362 126.939Z" fill="#211E27"/>
<path d="M125.45 118.768H107.046C106.263 118.768 105.614 118.119 105.614 117.336C105.614 116.553 106.263 115.904 107.046 115.904H125.45C126.232 115.904 126.882 116.553 126.882 117.336C126.882 118.119 126.232 118.768 125.45 118.768Z" fill="#211E27"/>
<path d="M115.847 126.939H107.046C106.263 126.939 105.614 126.29 105.614 125.507C105.614 124.724 106.263 124.075 107.046 124.075H115.847C116.63 124.075 117.279 124.724 117.279 125.507C117.279 126.29 116.63 126.939 115.847 126.939Z" fill="#211E27"/>
<path d="M125.45 110.597H77.0353C76.2526 110.597 75.6035 109.948 75.6035 109.165V87.6305C75.6035 86.8478 76.2526 86.1987 77.0353 86.1987H125.45C126.233 86.1987 126.882 86.8478 126.882 87.6305V109.165C126.882 109.948 126.233 110.597 125.45 110.597ZM78.4672 107.733H124.018V89.0624H78.4672V107.733Z" fill="#211E27"/>
<path d="M77.035 110.597C76.4813 110.597 75.9659 110.272 75.7177 109.738C75.3931 109.012 75.7177 108.172 76.4431 107.848L124.858 86.3134C125.583 85.9888 126.423 86.3134 126.748 87.0388C127.072 87.7643 126.748 88.6043 126.022 88.9288L77.6268 110.463C77.4359 110.559 77.2259 110.597 77.035 110.597Z" fill="#211E27"/>
<path d="M125.45 110.597C125.259 110.597 125.049 110.559 124.877 110.482L76.4627 88.9288C75.7372 88.6043 75.4127 87.7643 75.7372 87.0388C76.0618 86.3134 76.9018 85.9888 77.6272 86.3134L126.042 107.848C126.767 108.172 127.092 109.012 126.767 109.738C126.519 110.272 126.004 110.597 125.45 110.597Z" fill="#211E27"/>
<path d="M77.5503 75.5463C78.6152 75.5463 79.4784 74.683 79.4784 73.6181C79.4784 72.5532 78.6152 71.6899 77.5503 71.6899C76.4854 71.6899 75.6221 72.5532 75.6221 73.6181C75.6221 74.683 76.4854 75.5463 77.5503 75.5463Z" fill="#211E27"/>
<path d="M84.4614 75.5463C85.5263 75.5463 86.3896 74.683 86.3896 73.6181C86.3896 72.5532 85.5263 71.6899 84.4614 71.6899C83.3965 71.6899 82.5332 72.5532 82.5332 73.6181C82.5332 74.683 83.3965 75.5463 84.4614 75.5463Z" fill="#211E27"/>
<path d="M91.3725 75.5463C92.4374 75.5463 93.3007 74.683 93.3007 73.6181C93.3007 72.5532 92.4374 71.6899 91.3725 71.6899C90.3076 71.6899 89.4443 72.5532 89.4443 73.6181C89.4443 74.683 90.3076 75.5463 91.3725 75.5463Z" fill="#211E27"/>
<path d="M121.479 63.4235C120.944 63.4235 120.41 63.2898 119.933 62.9844L115.924 60.5598C114.129 61.5716 112.201 62.3353 110.196 62.7935C109.433 62.9653 108.65 62.488 108.478 61.7244C108.306 60.9607 108.764 60.178 109.547 60.0062C111.533 59.548 113.423 58.7462 115.179 57.6771C115.637 57.3907 116.21 57.3907 116.668 57.6771L121.403 60.5407L124.266 57.8107L121.422 52.9425C121.135 52.4844 121.154 51.9116 121.422 51.4535C122.51 49.6971 123.293 47.8071 123.751 45.8216C123.865 45.3062 124.285 44.8862 124.801 44.7526L130.165 43.4353L130.242 39.4835L124.782 38.0516C124.266 37.918 123.846 37.5171 123.732 36.9825C123.254 34.9971 122.472 33.088 121.384 31.3507C121.097 30.8925 121.097 30.3198 121.384 29.8616L124.247 25.1271L121.517 22.2635L116.649 25.108C116.191 25.3944 115.618 25.3944 115.16 25.108C113.404 24.0198 111.514 23.2371 109.528 22.7598C109.013 22.6453 108.593 22.2253 108.459 21.7098L107.142 16.3453L103.209 16.2498L101.777 21.7098C101.644 22.2253 101.243 22.6453 100.708 22.7598C98.7227 23.2371 96.8136 24.0198 95.0763 25.108C94.6181 25.3944 94.0454 25.3944 93.5872 25.108L88.8527 22.2444L85.989 24.9744L88.8336 29.8425C89.12 30.3007 89.1009 30.8735 88.8336 31.3316C87.7454 33.088 86.9627 34.978 86.4854 36.9635C86.3709 37.4789 85.9509 37.8989 85.4354 38.0325L80.0709 39.3498L79.9945 43.3016C80.7581 43.4925 81.2736 44.3326 81.0827 45.0962C80.8918 45.8598 80.1663 46.3944 79.3836 46.2035C78.0472 45.8789 77.1309 44.6953 77.1309 43.3207V39.4835C77.1309 38.1089 78.0663 36.9253 79.3836 36.6007L83.9272 35.4744C84.4045 33.7753 85.0727 32.1525 85.9509 30.6062L83.5263 26.5971C82.82 25.4135 82.9918 23.9244 83.9654 22.9507L86.6763 20.2398C87.65 19.2662 89.139 19.0944 90.3227 19.8007L94.3318 22.2253C95.8781 21.3662 97.5009 20.6789 99.2 20.2016L100.326 15.658C100.651 14.3216 101.834 13.4053 103.209 13.4053H107.046C108.421 13.4053 109.604 14.3407 109.929 15.658L111.055 20.2016C112.754 20.6789 114.377 21.3471 115.924 22.2253L119.933 19.8007C121.097 19.0944 122.605 19.2662 123.579 20.2398L126.29 22.9698C127.264 23.9435 127.435 25.4325 126.729 26.6162L124.304 30.6253C125.183 32.1716 125.851 33.7944 126.328 35.4935L130.872 36.6198C132.208 36.9444 133.144 38.1471 133.144 39.5025V43.3398C133.144 44.7144 132.208 45.898 130.891 46.2225L126.347 47.3489C125.87 49.048 125.202 50.6707 124.324 52.2171L126.748 56.2262C127.455 57.4098 127.283 58.8989 126.309 59.8726L123.598 62.5835C123.006 63.1371 122.243 63.4235 121.479 63.4235Z" fill="#211E27"/>
<path d="M109.165 53.1906C108.592 53.1906 108.058 52.8469 107.829 52.2742C107.542 51.5297 107.905 50.7087 108.65 50.4224C112.411 48.9524 114.835 45.4206 114.835 41.3924C114.835 36.0469 110.482 31.6942 105.137 31.6942C99.7916 31.6942 95.4388 36.0469 95.4388 41.3924C95.4388 42.4424 95.6106 43.5115 95.9734 44.5424C96.2216 45.2869 95.8397 46.1078 95.0761 46.356C94.3316 46.6042 93.5107 46.2033 93.2625 45.4587C92.8043 44.1224 92.5752 42.7669 92.5752 41.3924C92.5752 34.4624 98.207 28.8306 105.137 28.8306C112.067 28.8306 117.699 34.4624 117.699 41.3924C117.699 46.6042 114.549 51.2051 109.681 53.0951C109.509 53.1715 109.337 53.1906 109.165 53.1906Z" fill="#211E27"/>
<path d="M73.1984 134.613H36.2765C35.4938 134.613 34.8447 133.964 34.8447 133.182V129.344C34.8447 126.442 37.212 124.075 40.1138 124.075H69.3802C70.1629 124.075 70.812 124.724 70.812 125.507C70.812 126.29 70.1629 126.939 69.3802 126.939H40.1138C38.7965 126.939 37.7084 128.027 37.7084 129.344V131.75H73.2175C74.0002 131.75 74.6493 132.399 74.6493 133.182C74.6493 133.964 74.0002 134.613 73.1984 134.613Z" fill="#211E27"/>
</svg>
